<?xml version="1.0" standalone="no"?>
<!DOCTYPE svg PUBLIC "-//W3C//DTD SVG 20010904//EN"
 "http://www.w3.org/TR/2001/REC-SVG-20010904/DTD/svg10.dtd">
<svg version="1.0" xmlns="http://www.w3.org/2000/svg"
 width="300.000000pt" height="225.000000pt" viewBox="0 0 300.000000 225.000000"
 preserveAspectRatio="xMidYMid meet">
<metadata>
Created by potrace 1.10, written by Peter Selinger 2001-2011
</metadata>
<g transform="translate(0.000000,225.000000) scale(0.050000,-0.050000)"
fill="#000000" stroke="none">
<path d="M3919 4291 c-295 -194 -177 -651 169 -651 179 0 294 84 335 245 l26
100 230 -10 c856 -36 1267 -787 912 -1668 -446 -1104 -1792 -1993 -1791 -1183
1 510 220 731 908 918 375 102 477 180 617 471 150 314 146 552 -13 637 -67
36 -75 36 -302 -10 -65 -13 -194 -21 -286 -17 l-167 7 -88 103 c-156 181 -387
296 -648 323 l-130 14 -82 150 c-200 364 -482 539 -870 540 -648 1 -1264 -590
-1294 -1240 -30 -640 197 -1075 976 -1871 451 -461 500 -534 438 -650 -82
-153 -686 -50 -1016 173 -117 79 -114 62 -52 268 130 440 -63 853 -482 1031
-73 31 -162 86 -199 123 -205 205 -538 -48 -403 -308 81 -158 242 -183 426
-66 37 23 53 21 130 -19 412 -212 404 -794 -15 -1017 -291 -155 -851 77 -741
308 119 249 -111 500 -346 378 -184 -95 -190 -392 -9 -474 28 -13 72 -65 98
-115 208 -412 805 -550 1206 -279 l86 58 153 -92 c586 -356 1241 -406 1395
-107 123 236 15 449 -464 920 -894 877 -1136 1554 -776 2171 358 616 1242 737
1509 208 76 -149 78 -144 -114 -241 -692 -350 -865 -1240 -241 -1239 377 1
762 551 701 1002 -28 212 329 147 574 -104 177 -181 237 -205 496 -201 138 2
205 -5 205 -19 0 -13 33 -53 73 -89 83 -76 78 -112 -38 -284 -72 -107 -115
-129 -419 -212 -698 -192 -990 -470 -1046 -999 -93 -869 715 -986 1462 -212
554 575 732 848 878 1349 290 990 -275 1795 -1277 1821 -142 4 -268 15 -280
25 -118 94 -300 109 -414 34z m264 -224 c76 -69 15 -207 -92 -207 -43 0 -131
80 -131 120 0 90 154 150 223 87z m-754 -866 c28 -45 -27 -329 -87 -451 -195
-396 -568 -415 -421 -22 74 198 458 555 508 473z"/>
<path d="M4104 2969 c-49 -34 -60 -125 -20 -165 40 -40 131 -29 165 20 76 108
-37 221 -145 145z"/>
</g>
</svg>
